<svg width="23" height="23" viewBox="0 0 23 23" fill="none" xmlns="http://www.w3.org/2000/svg">
<path d="M4.95438 3.9002H21.288L19.0657 11.678H6.15098M20.1769 16.1224H6.84352L4.6213 1.67798H1.28796M7.95463 20.5669C7.95463 21.1805 7.45716 21.678 6.84352 21.678C6.22988 21.678 5.73241 21.1805 5.73241 20.5669C5.73241 19.9532 6.22988 19.4558 6.84352 19.4558C7.45716 19.4558 7.95463 19.9532 7.95463 20.5669ZM20.1769 20.5669C20.1769 21.1805 19.6794 21.678 19.0657 21.678C18.4521 21.678 17.9546 21.1805 17.9546 20.5669C17.9546 19.9532 18.4521 19.4558 19.0657 19.4558C19.6794 19.4558 20.1769 19.9532 20.1769 20.5669Z" stroke="black" stroke-width="2" stroke-linecap="round" stroke-linejoin="round"/>
</svg>
