<svg width="21" height="21" viewBox="0 0 21 21" fill="none" xmlns="http://www.w3.org/2000/svg">
<path fill-rule="evenodd" clip-rule="evenodd" d="M1.20349 4.00671C0.0569938 2.7169 0.972613 0.677979 2.69831 0.677979H18.2446C19.9703 0.677979 20.8859 2.71691 19.7394 4.00671L13.4715 11.0582V19.678C13.4715 20.0246 13.292 20.3464 12.9971 20.5287C12.7023 20.7109 12.3343 20.7274 12.0243 20.5724L8.02425 18.5724C7.68546 18.403 7.47146 18.0568 7.47146 17.678V11.0582L1.20349 4.00671ZM18.2446 2.67798H2.69831L9.21885 10.0136C9.38155 10.1967 9.47145 10.4331 9.47145 10.678V17.06L11.4715 18.06V10.678C11.4715 10.4331 11.5614 10.1967 11.7241 10.0136L18.2446 2.67798Z" fill="black"/>
</svg>
